<svg xmlns="http://www.w3.org/2000/svg" xmlns:xlink="http://www.w3.org/1999/xlink" width="500" zoomAndPan="magnify" viewBox="0 0 375 374.999991" height="500" preserveAspectRatio="xMidYMid meet" version="1.0"><defs><g/><clipPath id="3a770416ee"><path d="M 96.410156 63.457031 L 245.660156 63.457031 L 245.660156 212.707031 L 96.410156 212.707031 Z M 96.410156 63.457031 " clip-rule="nonzero"/></clipPath></defs><path fill="#0a68ff" d="M 147.957031 177.84375 C 147.957031 178.265625 147.878906 178.675781 147.714844 179.066406 C 147.554688 179.457031 147.324219 179.800781 147.023438 180.101562 C 146.722656 180.402344 146.378906 180.632812 145.988281 180.792969 C 145.597656 180.957031 145.1875 181.035156 144.765625 181.035156 C 144.34375 181.035156 143.933594 180.957031 143.542969 180.792969 C 143.152344 180.632812 142.808594 180.402344 142.507812 180.101562 C 142.210938 179.800781 141.980469 179.457031 141.816406 179.066406 C 141.65625 178.675781 141.574219 178.265625 141.574219 177.84375 C 141.574219 177.421875 141.65625 177.015625 141.816406 176.621094 C 141.980469 176.230469 142.210938 175.886719 142.507812 175.585938 C 142.808594 175.289062 143.152344 175.058594 143.542969 174.894531 C 143.933594 174.734375 144.34375 174.652344 144.765625 174.652344 C 145.1875 174.652344 145.597656 174.734375 145.988281 174.894531 C 146.378906 175.058594 146.722656 175.289062 147.023438 175.585938 C 147.324219 175.886719 147.554688 176.230469 147.714844 176.621094 C 147.878906 177.015625 147.957031 177.421875 147.957031 177.84375 Z M 147.957031 177.84375 " fill-opacity="1" fill-rule="nonzero"/><path fill="#0a68ff" d="M 200.347656 177.84375 C 200.347656 178.265625 200.265625 178.675781 200.105469 179.066406 C 199.941406 179.457031 199.710938 179.800781 199.414062 180.101562 C 199.113281 180.402344 198.769531 180.632812 198.378906 180.792969 C 197.988281 180.957031 197.578125 181.035156 197.15625 181.035156 C 196.734375 181.035156 196.324219 180.957031 195.933594 180.792969 C 195.542969 180.632812 195.199219 180.402344 194.898438 180.101562 C 194.597656 179.800781 194.367188 179.457031 194.207031 179.066406 C 194.046875 178.675781 193.964844 178.265625 193.964844 177.84375 C 193.964844 177.421875 194.046875 177.015625 194.207031 176.621094 C 194.367188 176.230469 194.597656 175.886719 194.898438 175.585938 C 195.199219 175.289062 195.542969 175.058594 195.933594 174.894531 C 196.324219 174.734375 196.734375 174.652344 197.15625 174.652344 C 197.578125 174.652344 197.988281 174.734375 198.378906 174.894531 C 198.769531 175.058594 199.113281 175.289062 199.414062 175.585938 C 199.710938 175.886719 199.941406 176.230469 200.105469 176.621094 C 200.265625 177.015625 200.347656 177.421875 200.347656 177.84375 Z M 200.347656 177.84375 " fill-opacity="1" fill-rule="nonzero"/><g clip-path="url(#3a770416ee)"><path fill="#0a68ff" d="M 171.15625 63.410156 C 129.878906 63.410156 96.417969 96.875 96.417969 138.152344 C 96.417969 179.425781 129.878906 212.894531 171.15625 212.894531 C 212.433594 212.894531 245.898438 179.425781 245.898438 138.152344 C 245.898438 96.875 212.433594 63.410156 171.15625 63.410156 Z M 150.730469 166.898438 L 197.15625 166.898438 C 203.191406 166.898438 208.101562 171.808594 208.101562 177.84375 C 208.101562 183.878906 203.191406 188.789062 197.15625 188.789062 C 191.121094 188.789062 186.207031 183.878906 186.207031 177.84375 C 186.207031 176.734375 186.378906 175.664062 186.6875 174.652344 L 155.234375 174.652344 C 155.542969 175.664062 155.710938 176.734375 155.710938 177.84375 C 155.710938 183.878906 150.800781 188.789062 144.765625 188.789062 C 138.730469 188.789062 133.820312 183.878906 133.820312 177.84375 C 133.820312 172.453125 137.742188 167.96875 142.882812 167.074219 L 140.957031 156.476562 L 140.9375 156.375 L 130.730469 105.867188 L 121.351562 105.925781 L 121.300781 98.171875 L 137.066406 98.070312 L 140.882812 116.945312 L 211.554688 125.417969 L 202.578125 159.628906 L 149.410156 159.628906 Z M 150.730469 166.898438 " fill-opacity="1" fill-rule="nonzero"/></g><g fill="#ef8121" fill-opacity="0.4"><g transform="translate(69.507736, 263.972296)"><g><path d="M 18.347656 0.832031 C 25.960938 0.832031 31.800781 -2.945312 34.414062 -9.507812 L 24.070312 -9.507812 C 22.90625 -8.117188 20.847656 -7.226562 18.570312 -7.226562 C 15.566406 -7.226562 13.066406 -8.839844 12.285156 -12.0625 L 34.96875 -12.0625 C 35.523438 -23.015625 28.910156 -30.242188 18.402344 -30.242188 C 8.5625 -30.242188 1.722656 -23.90625 1.722656 -14.730469 C 1.722656 -5.503906 8.507812 0.832031 18.347656 0.832031 Z M 12.34375 -17.84375 C 13.230469 -20.679688 15.566406 -22.238281 18.511719 -22.238281 C 21.738281 -22.238281 23.90625 -20.570312 24.796875 -17.84375 Z M 12.34375 -17.84375 "/></g></g></g><g fill="#ef8121" fill-opacity="0.4"><g transform="translate(106.138237, 263.972296)"><g><path d="M 3.335938 -10.285156 L 22.015625 -10.285156 L 22.015625 -17.679688 L 3.335938 -17.679688 Z M 3.335938 -10.285156 "/></g></g></g><g fill="#0a68ff" fill-opacity="1"><g transform="translate(69.507736, 263.972296)"><g><path d="M 18.347656 0.832031 C 25.960938 0.832031 31.800781 -2.945312 34.414062 -9.507812 L 24.070312 -9.507812 C 22.90625 -8.117188 20.847656 -7.226562 18.570312 -7.226562 C 15.566406 -7.226562 13.066406 -8.839844 12.285156 -12.0625 L 34.96875 -12.0625 C 35.523438 -23.015625 28.910156 -30.242188 18.402344 -30.242188 C 8.5625 -30.242188 1.722656 -23.90625 1.722656 -14.730469 C 1.722656 -5.503906 8.507812 0.832031 18.347656 0.832031 Z M 12.34375 -17.84375 C 13.230469 -20.679688 15.566406 -22.238281 18.511719 -22.238281 C 21.738281 -22.238281 23.90625 -20.570312 24.796875 -17.84375 Z M 12.34375 -17.84375 "/></g></g></g><g fill="#0a68ff" fill-opacity="1"><g transform="translate(106.138237, 263.972296)"><g><path d="M 3.335938 -10.285156 L 22.015625 -10.285156 L 22.015625 -17.679688 L 3.335938 -17.679688 Z M 3.335938 -10.285156 "/></g></g></g><g fill="#424141" fill-opacity="1"><g transform="translate(131.490992, 263.972296)"><g><path d="M 18.066406 0.832031 C 27.742188 0.832031 33.46875 -3.726562 33.46875 -11.398438 C 33.46875 -17.84375 29.296875 -21.625 19.847656 -23.738281 C 14.84375 -24.851562 13.007812 -26.074219 13.007812 -28.074219 C 13.007812 -29.964844 14.675781 -31.132812 17.289062 -31.132812 C 20.402344 -31.132812 22.183594 -29.519531 22.183594 -26.574219 L 32.746094 -26.574219 C 32.746094 -34.578125 26.628906 -39.75 17.066406 -39.75 C 7.894531 -39.75 2.222656 -35.191406 2.222656 -27.851562 C 2.222656 -21.292969 6.503906 -17.234375 15.289062 -15.566406 C 20.015625 -14.621094 22.292969 -13.175781 22.292969 -10.953125 C 22.292969 -9.007812 20.625 -7.894531 17.902344 -7.894531 C 14.675781 -7.894531 12.785156 -9.617188 12.785156 -12.621094 L 1.945312 -12.621094 C 1.945312 -4.226562 7.949219 0.832031 18.066406 0.832031 Z M 18.066406 0.832031 "/></g></g></g><g fill="#424141" fill-opacity="1"><g transform="translate(163.729734, 263.972296)"><g><path d="M 3.726562 0 L 14.398438 0 L 14.398438 -15.84375 C 14.398438 -19.402344 16.234375 -21.402344 19.179688 -21.402344 C 22.015625 -21.402344 23.683594 -19.570312 23.683594 -16.121094 L 23.683594 0 L 34.355469 0 L 34.355469 -17.234375 C 34.355469 -25.238281 29.742188 -30.242188 22.292969 -30.242188 C 19.234375 -30.242188 16.457031 -29.355469 14.398438 -27.742188 L 14.398438 -41.140625 L 3.726562 -41.140625 Z M 3.726562 0 "/></g></g></g><g fill="#424141" fill-opacity="1"><g transform="translate(197.969527, 263.972296)"><g><path d="M 18.847656 0.832031 C 29.019531 0.832031 35.914062 -5.449219 35.914062 -14.730469 C 35.914062 -23.960938 29.019531 -30.242188 18.847656 -30.242188 C 8.617188 -30.242188 1.722656 -23.960938 1.722656 -14.730469 C 1.722656 -5.449219 8.617188 0.832031 18.847656 0.832031 Z M 12.175781 -14.730469 C 12.175781 -18.625 14.953125 -21.402344 18.847656 -21.402344 C 22.738281 -21.402344 25.460938 -18.625 25.460938 -14.730469 C 25.460938 -10.785156 22.738281 -8.003906 18.847656 -8.003906 C 14.953125 -8.003906 12.175781 -10.785156 12.175781 -14.730469 Z M 12.175781 -14.730469 "/></g></g></g><g fill="#424141" fill-opacity="1"><g transform="translate(232.320502, 263.972296)"><g><path d="M 22.683594 0.832031 C 31.578125 0.832031 37.75 -5.503906 37.75 -14.730469 C 37.75 -23.851562 31.578125 -30.242188 22.683594 -30.242188 C 18.570312 -30.242188 15.066406 -28.851562 12.507812 -26.460938 L 11.398438 -29.410156 L 3.726562 -29.410156 L 3.726562 11.117188 L 14.398438 11.117188 L 14.398438 -1.445312 C 16.679688 0 19.511719 0.832031 22.683594 0.832031 Z M 14.007812 -14.730469 C 14.007812 -18.625 16.679688 -21.402344 20.625 -21.402344 C 24.574219 -21.402344 27.242188 -18.625 27.242188 -14.730469 C 27.242188 -10.785156 24.574219 -8.003906 20.625 -8.003906 C 16.679688 -8.003906 14.007812 -10.785156 14.007812 -14.730469 Z M 14.007812 -14.730469 "/></g></g></g></svg>