<svg xmlns="http://www.w3.org/2000/svg" xmlns:xlink="http://www.w3.org/1999/xlink" width="500" zoomAndPan="magnify" viewBox="0 0 375 374.999991" height="500" preserveAspectRatio="xMidYMid meet" version="1.0"><defs><clipPath id="a69d90b7f2"><path d="M 11.375 0 L 363.875 0 L 363.875 352.5 L 11.375 352.5 Z M 11.375 0 " clip-rule="nonzero"/></clipPath></defs><rect x="-37.5" width="450" fill="#ffffff" y="-37.499999" height="449.999989" fill-opacity="1"/><rect x="-37.5" width="450" fill="#fafafa" y="-37.499999" height="449.999989" fill-opacity="1"/><path fill="#0a68ff" d="M 132.816406 269.476562 C 132.816406 269.96875 132.769531 270.457031 132.671875 270.941406 C 132.574219 271.425781 132.433594 271.898438 132.242188 272.355469 C 132.054688 272.808594 131.824219 273.242188 131.550781 273.652344 C 131.273438 274.0625 130.960938 274.445312 130.613281 274.792969 C 130.265625 275.140625 129.882812 275.453125 129.472656 275.726562 C 129.0625 276.003906 128.628906 276.234375 128.175781 276.421875 C 127.71875 276.613281 127.246094 276.753906 126.761719 276.851562 C 126.277344 276.949219 125.789062 276.996094 125.296875 276.996094 C 124.800781 276.996094 124.3125 276.949219 123.828125 276.851562 C 123.34375 276.753906 122.875 276.613281 122.417969 276.421875 C 121.960938 276.234375 121.527344 276.003906 121.117188 275.726562 C 120.707031 275.453125 120.328125 275.140625 119.980469 274.792969 C 119.628906 274.445312 119.316406 274.0625 119.042969 273.652344 C 118.769531 273.242188 118.539062 272.808594 118.347656 272.355469 C 118.160156 271.898438 118.015625 271.425781 117.921875 270.941406 C 117.824219 270.457031 117.777344 269.96875 117.777344 269.476562 C 117.777344 268.980469 117.824219 268.492188 117.921875 268.007812 C 118.015625 267.523438 118.160156 267.054688 118.347656 266.597656 C 118.539062 266.140625 118.769531 265.707031 119.042969 265.296875 C 119.316406 264.886719 119.628906 264.507812 119.980469 264.160156 C 120.328125 263.808594 120.707031 263.496094 121.117188 263.222656 C 121.527344 262.949219 121.960938 262.71875 122.417969 262.527344 C 122.875 262.339844 123.34375 262.195312 123.828125 262.101562 C 124.3125 262.003906 124.800781 261.957031 125.296875 261.957031 C 125.789062 261.957031 126.277344 262.003906 126.761719 262.101562 C 127.246094 262.195312 127.71875 262.339844 128.175781 262.527344 C 128.628906 262.71875 129.0625 262.949219 129.472656 263.222656 C 129.882812 263.496094 130.265625 263.808594 130.613281 264.160156 C 130.960938 264.507812 131.273438 264.886719 131.550781 265.296875 C 131.824219 265.707031 132.054688 266.140625 132.242188 266.597656 C 132.433594 267.054688 132.574219 267.523438 132.671875 268.007812 C 132.769531 268.492188 132.816406 268.980469 132.816406 269.476562 Z M 132.816406 269.476562 " fill-opacity="1" fill-rule="nonzero"/><path fill="#0a68ff" d="M 256.238281 269.476562 C 256.238281 269.96875 256.191406 270.457031 256.09375 270.941406 C 255.996094 271.425781 255.855469 271.898438 255.664062 272.355469 C 255.476562 272.808594 255.246094 273.242188 254.96875 273.652344 C 254.695312 274.0625 254.382812 274.445312 254.035156 274.792969 C 253.6875 275.140625 253.304688 275.453125 252.894531 275.726562 C 252.484375 276.003906 252.050781 276.234375 251.597656 276.421875 C 251.140625 276.613281 250.667969 276.753906 250.183594 276.851562 C 249.699219 276.949219 249.210938 276.996094 248.71875 276.996094 C 248.222656 276.996094 247.734375 276.949219 247.25 276.851562 C 246.765625 276.753906 246.296875 276.613281 245.839844 276.421875 C 245.382812 276.234375 244.949219 276.003906 244.539062 275.726562 C 244.128906 275.453125 243.75 275.140625 243.402344 274.792969 C 243.050781 274.445312 242.738281 274.0625 242.464844 273.652344 C 242.191406 273.242188 241.960938 272.808594 241.769531 272.355469 C 241.582031 271.898438 241.4375 271.425781 241.34375 270.941406 C 241.246094 270.457031 241.199219 269.96875 241.199219 269.476562 C 241.199219 268.980469 241.246094 268.492188 241.34375 268.007812 C 241.4375 267.523438 241.582031 267.054688 241.769531 266.597656 C 241.960938 266.140625 242.191406 265.707031 242.464844 265.296875 C 242.738281 264.886719 243.050781 264.507812 243.402344 264.160156 C 243.75 263.808594 244.128906 263.496094 244.539062 263.222656 C 244.949219 262.949219 245.382812 262.71875 245.839844 262.527344 C 246.296875 262.339844 246.765625 262.195312 247.25 262.101562 C 247.734375 262.003906 248.222656 261.957031 248.71875 261.957031 C 249.210938 261.957031 249.699219 262.003906 250.183594 262.101562 C 250.667969 262.195312 251.140625 262.339844 251.597656 262.527344 C 252.050781 262.71875 252.484375 262.949219 252.894531 263.222656 C 253.304688 263.496094 253.6875 263.808594 254.035156 264.160156 C 254.382812 264.507812 254.695312 264.886719 254.96875 265.296875 C 255.246094 265.707031 255.476562 266.140625 255.664062 266.597656 C 255.855469 267.054688 255.996094 267.523438 256.09375 268.007812 C 256.191406 268.492188 256.238281 268.980469 256.238281 269.476562 Z M 256.238281 269.476562 " fill-opacity="1" fill-rule="nonzero"/><g clip-path="url(#a69d90b7f2)"><path fill="#0a68ff" d="M 187.46875 -0.105469 C 90.226562 -0.105469 11.398438 78.730469 11.398438 175.964844 C 11.398438 273.203125 90.226562 352.042969 187.46875 352.042969 C 284.710938 352.042969 363.542969 273.207031 363.542969 175.964844 C 363.542969 78.726562 284.710938 -0.105469 187.46875 -0.105469 Z M 139.347656 243.691406 L 248.71875 243.691406 C 262.9375 243.691406 274.5 255.257812 274.5 269.476562 C 274.5 283.695312 262.9375 295.261719 248.71875 295.261719 C 234.496094 295.261719 222.929688 283.695312 222.929688 269.476562 C 222.929688 266.859375 223.328125 264.335938 224.050781 261.957031 L 149.957031 261.957031 C 150.683594 264.335938 151.082031 266.859375 151.082031 269.476562 C 151.082031 283.695312 139.515625 295.261719 125.296875 295.261719 C 111.074219 295.261719 99.511719 283.695312 99.511719 269.476562 C 99.511719 256.773438 108.75 246.214844 120.859375 244.101562 L 116.324219 219.132812 L 116.277344 218.894531 L 92.230469 99.90625 L 70.140625 100.050781 L 70.019531 81.785156 L 107.15625 81.539062 L 116.144531 126.007812 L 282.640625 145.96875 L 261.488281 226.5625 L 136.238281 226.5625 Z M 139.347656 243.691406 " fill-opacity="1" fill-rule="nonzero"/></g></svg>